<svg width="24" height="24" viewBox="0 0 24 24" fill="none" xmlns="http://www.w3.org/2000/svg">
<path fill-rule="evenodd" clip-rule="evenodd" d="M21.3903 4.11554C22.4182 4.39239 23.2288 5.20281 23.5055 6.23094C24.0197 8.10886 23.9999 12.0233 23.9999 12.0233C23.9999 12.0233 23.9999 15.9177 23.5057 17.7958C23.2288 18.8238 22.4184 19.6344 21.3903 19.9111C19.5122 20.4054 12 20.4054 12 20.4054C12 20.4054 4.50731 20.4054 2.60961 19.8915C1.58148 19.6146 0.771054 18.804 0.4942 17.7761C0 15.9177 0 12.0035 0 12.0035C0 12.0035 0 8.10886 0.4942 6.23094C0.770871 5.20299 1.60125 4.37262 2.60943 4.09594C4.48753 3.60156 11.9998 3.60156 11.9998 3.60156C11.9998 3.60156 19.5122 3.60156 21.3903 4.11554ZM15.8549 12.0035L9.60788 15.6016V8.4055L15.8549 12.0035Z" fill="#AAAAAA"/>
</svg>
