<svg width="48" height="48" viewBox="0 0 48 48" fill="none" xmlns="http://www.w3.org/2000/svg">
<g clip-path="url(#clip0_49_2)">
<path d="M24 0C10.7452 0 0 10.7452 0 24C0 37.2548 10.7452 48 24 48C37.2548 48 48 37.2548 48 24C48 10.7452 37.2548 0 24 0Z" fill="white"/>
<path fill-rule="evenodd" clip-rule="evenodd" d="M21.2071 29.2071C20.8166 29.5976 20.1834 29.5976 19.7929 29.2071L15.2929 24.7071C14.9024 24.3166 14.9024 23.6834 15.2929 23.2929L19.7929 18.7929C20.1834 18.4024 20.8166 18.4024 21.2071 18.7929C21.5976 19.1834 21.5976 19.8166 21.2071 20.2071L18.4142 23H32C32.5523 23 33 23.4477 33 24C33 24.5523 32.5523 25 32 25H18.4142L21.2071 27.7929C21.5976 28.1834 21.5976 28.8166 21.2071 29.2071Z" fill="#424551"/>
</g>
<defs>
<clipPath id="clip0_49_2">
<rect width="48" height="48" fill="white" transform="translate(48 48) rotate(-180)"/>
</clipPath>
</defs>
</svg>
